<?xml version="1.0" encoding="UTF-8"?><svg id="Calque_1" xmlns="http://www.w3.org/2000/svg" viewBox="0 0 285.31 120" xmlns:c2pa="http://c2pa.org/manifest"><metadata><c2pa:manifest>AAAWgmp1bWIAAAAeanVtZGMycGEAEQAQgAAAqgA4m3EDYzJwYQAAABZcanVtYgAAAEdqdW1kYzJtYQARABCAAACqADibcQN1cm46YzJwYToyZjEwNjI2MS1mZWJjLTRjZjQtYmFiYS00MWM4YjU4Zjc5ZGQAAAADl2p1bWIAAAApanVtZGMyYXMAEQAQgAAAqgA4m3EDYzJwYS5hc3NlcnRpb25zAAAAALxqdW1iAAAARGp1bWRjYm9yABEAEIAAAKoAOJtxE2MycGEuaW5ncmVkaWVudC52MwAAAAAYYzJzaHQvIE/cHrN3seJCVLbAZS8AAABwY2JvcqNpZGM6Zm9ybWF0bWltYWdlL3N2Zyt4bWxqaW5zdGFuY2VJRHgseG1wOmlpZDpjNmEzNWFlZC00OWYxLTRkZTgtYTJlNi0zZmEwZDg4NTJmZDdscmVsYXRpb25zaGlwaHBhcmVudE9mAAAB4mp1bWIAAABBanVtZGNib3IAEQAQgAAAqgA4m3ETYzJwYS5hY3Rpb25zLnYyAAAAABhjMnNoNAx7OWYh/1fSZ3MtlMX/9wAAAZljYm9yomdhY3Rpb25zgqJmYWN0aW9ua2MycGEub3BlbmVkanBhcmFtZXRlcnOha2luZ3JlZGllbnRzgaJjdXJseC1zZWxmI2p1bWJmPWMycGEuYXNzZXJ0aW9ucy9jMnBhLmluZ3JlZGllbnQudjNkaGFzaFgg4C7AFc28q0FghoFgMiXxsare4HrsAwEwrxBpLzj/agKkZmFjdGlvbngdY29tLmFudGhyb3BpYy5jbGF1ZGUucHJvdmlkZWRqcGFyYW1ldGVyc6F4H2NvbS5hbnRocm9waWMub3JpZ2luLWNvbmZpZGVuY2VndW5rbm93bmtkZXNjcmlwdGlvbnhmQ2xhdWRlIHByb3ZpZGVkIHRoaXMgZmlsZSBhdCB0aGUgcmVxdWVzdCBvZiBhIHVzZXIgYW5kIG1heSBoYXZlIGNyZWF0ZWQgb3IgbW9kaWZpZWQgdGhlIGZpbGUgY29udGVudHMubXNvZnR3YXJlQWdlbnShZG5hbWVmQ2xhdWRlcmFsbEFjdGlvbnNJbmNsdWRlZPUAAADIanVtYgAAAEBqdW1kY2JvcgARABCAAACqADibcRNjMnBhLmhhc2guZGF0YQAAAAAYYzJzaDYBLraKSOM+UVp911osUM0AAACAY2JvcqVjYWxnZnNoYTI1NmNwYWRNAAAAAAAAAAAAAAAAAGRoYXNoWCCouH0k8bwKL1c9LZSFklg7erHErTTEM34KsHzue0dV7WRuYW1lbmp1bWJmIG1hbmlmZXN0amV4Y2x1c2lvbnOBomVzdGFydBi0Zmxlbmd0aBkeBAAAAj5qdW1iAAAAJ2p1bWRjMmNsABEAEIAAAKoAOJtxA2MycGEuY2xhaW0udjIAAAACD2Nib3KlY2FsZ2ZzaGEyNTZpc2lnbmF0dXJleE1zZWxmI2p1bWJmPS9jMnBhL3VybjpjMnBhOjJmMTA2MjYxLWZlYmMtNGNmNC1iYWJhLTQxYzhiNThmNzlkZC9jMnBhLnNpZ25hdHVyZWppbnN0YW5jZUlEeCx4bXA6aWlkOmM2M2U5MDgxLTA0OTQtNDk0ZS1iNmQ4LTYzYmI3NDcyMGI1OXJjcmVhdGVkX2Fzc2VydGlvbnODomN1cmx4LXNlbGYjanVtYmY9YzJwYS5hc3NlcnRpb25zL2MycGEuaW5ncmVkaWVudC52M2RoYXNoWCDgLsAVzbyrQWCGgWAyJfGxqt7geuwDATCvEGkvOP9qAqJjdXJseCpzZWxmI2p1bWJmPWMycGEuYXNzZXJ0aW9ucy9jMnBhLmFjdGlvbnMudjJkaGFzaFggXgB/BNoS+4x7Q13DYn2Cl1mWQByjcRdmxw4FfsnP7ROiY3VybHgpc2VsZiNqdW1iZj1jMnBhLmFzc2VydGlvbnMvYzJwYS5oYXNoLmRhdGFkaGFzaFgg31OIuSFijd9S4wR+nK6DU4px0F3Z87E4WCzyel5v/Sd0Y2xhaW1fZ2VuZXJhdG9yX2luZm+jZG5hbWVvQW50aHJvcGljIEZpbGVzZ3ZlcnNpb25lMS4wLjBrc3BlY1ZlcnNpb25lMi40LjAAABA4anVtYgAAAChqdW1kYzJjcwARABCAAACqADibcQNjMnBhLnNpZ25hdHVyZQAAABAIY2JvctKEWQISogEmGCFZAgowggIGMIIBjaADAgECAhRA5aAK7sI50L64g/oGQgU9Z1UTADAKBggqhkjOPQQDAzBJMRcwFQYDVQQKEw5BbnRocm9waWMsIFBCQzEuMCwGA1UEAxMlQW50aHJvcGljIENvbnRlbnQgQ3JlZGVudGlhbHMgUm9vdCBDQTAeFw0yNjA4MDcxODQzNTZaFw0yODA4MDYxOTQzNTZaMEQxFzAVBgNVBAoTDkFudGhyb3BpYywgUEJDMSkwJwYDVQQDEyBBbnRocm9waWMgQ2xhdWRlIENvbnRlbnQgU2lnbmluZzBZMBMGByqGSM49AgEGCCqGSM49AwEHA0IABJh6CmvLUBgFFNU0vUKlOVtE6djd17L5SuwX0LemFisBM3dkd/3cyjxFA3Qo5S46fX0/ihY0VZ7mfb9KF703t5OjWDBWMA4GA1UdDwEB/wQEAwIHgDAVBgNVHSUEDjAMBgorBgEEAYPoXgIBMAwGA1UdEwEB/wQCMAAwHwYDVR0jBBgwFoAUzlHiBIFOZFsj+OPEz5o+nMHXXMIwCgYIKoZIzj0EAwMDZwAwZAIwMXMdFJ4BetLLVY7ORuE9noqbbAZOZn/aArXyTwFAZfKrPzxF2vPoJNf1+UCdg1XGAjBwX1zd9WGqYkqmL5SFqw1QySjr1zJfpJM9+1rdDwSPLMOPOjKuiXjoU/pUUeG9RwmhY3BhZFkNngAAAAAAAAAAAAAAAAAAAAAAAAAAAAAAAAAAAAAAAAAAAAAAAAAAAAAAAAAAAAAAAAAAAAAAAAAAAAAAAAAAAAAAAAAAAAAAAAAAAAAAAAAAAAAAAAAAAAAAAAAAAAAAAAAAAAAAAAAAAAAAAAAAAAAAAAAAAAAAAAAAAAAAAAAAAAAAAAAAAAAAAAAAAAAAAAAAAAAAAAAAAAAAAAAAAAAAAAAAAAAAAAAAAAAAAAAAAAAAAAAAAAAAAAAAAAAAAAAAAAAAAAAAAAAAAAAAAAAAAAAAAAAAAAAAAAAAAAAAAAAAAAAAAAAAAAAAAAAAAAAAAAAAAAAAAAAAAAAAAAAAAAAAAAAAAAAAAAAAAAAAAAAAAAAAAAAAAAAAAAAAAAAAAAAAAAAAAAAAAAAAAAAAAAAAAAAAAAAAAAAAAAAAAAAAAAAAAAAAAAAAAAAAAAAAAAAAAAAAAAAAAAAAAAAAAAAAAAAAAAAAAAAAAAAAAAAAAAAAAAAAAAAAAAAAAAAAAAAAAAAAAAAAAAAAAAAAAAAAAAAAAAAAAAAAAAAAAAAAAAAAAAAAAAAAAAAAAAAAAAAAAAAAAAAAAAAAAAAAAAAAAAAAAAAAAAAAAAAAAAAAAAAAAAAAAAAAAAAAAAAAAAAAAAAAAAAAAAAAAAAAAAAAAAAAAAAAAAAAAAAAAAAAAAAAAAAAAAAAAAAAAAAAAAAAAAAAAAAAAAAAAAAAAAAAAAAAAAAAAAAAAAAAAAAAAAAAAAAAAAAAAAAAAAAAAAAAAAAAAAAAAAAAAAAAAAAAAAAAAAAAAAAAAAAAAAAAAAAAAAAAAAAAAAAAAAAAAAAAAAAAAAAAAAAAAAAAAAAAAAAAAAAAAAAAAAAAAAAAAAAAAAAAAAAAAAAAAAAAAAAAAAAAAAAAAAAAAAAAAAAAAAAAAAAAAAAAAAAAAAAAAAAAAAAAAAAAAAAAAAAAAAAAAAAAAAAAAAAAAAAAAAAAAAAAAAAAAAAAAAAAAAAAAAAAAAAAAAAAAAAAAAAAAAAAAAAAAAAAAAAAAAAAAAAAAAAAAAAAAAAAAAAAAAAAAAAAAAAAAAAAAAAAAAAAAAAAAAAAAAAAAAAAAAAAAAAAAAAAAAAAAAAAAAAAAAAAAAAAAAAAAAAAAAAAAAAAAAAAAAAAAAAAAAAAAAAAAAAAAAAAAAAAAAAAAAAAAAAAAAAAAAAAAAAAAAAAAAAAAAAAAAAAAAAAAAAAAAAAAAAAAAAAAAAAAAAAAAAAAAAAAAAAAAAAAAAAAAAAAAAAAAAAAAAAAAAAAAAAAAAAAAAAAAAAAAAAAAAAAAAAAAAAAAAAAAAAAAAAAAAAAAAAAAAAAAAAAAAAAAAAAAAAAAAAAAAAAAAAAAAAAAAAAAAAAAAAAAAAAAAAAAAAAAAAAAAAAAAAAAAAAAAAAAAAAAAAAAAAAAAAAAAAAAAAAAAAAAAAAAAAAAAAAAAAAAAAAAAAAAAAAAAAAAAAAAAAAAAAAAAAAAAAAAAAAAAAAAAAAAAAAAAAAAAAAAAAAAAAAAAAAAAAAAAAAAAAAAAAAAAAAAAAAAAAAAAAAAAAAAAAAAAAAAAAAAAAAAAAAAAAAAAAAAAAAAAAAAAAAAAAAAAAAAAAAAAAAAAAAAAAAAAAAAAAAAAAAAAAAAAAAAAAAAAAAAAAAAAAAAAAAAAAAAAAAAAAAAAAAAAAAAAAAAAAAAAAAAAAAAAAAAAAAAAAAAAAAAAAAAAAAAAAAAAAAAAAAAAAAAAAAAAAAAAAAAAAAAAAAAAAAAAAAAAAAAAAAAAAAAAAAAAAAAAAAAAAAAAAAAAAAAAAAAAAAAAAAAAAAAAAAAAAAAAAAAAAAAAAAAAAAAAAAAAAAAAAAAAAAAAAAAAAAAAAAAAAAAAAAAAAAAAAAAAAAAAAAAAAAAAAAAAAAAAAAAAAAAAAAAAAAAAAAAAAAAAAAAAAAAAAAAAAAAAAAAAAAAAAAAAAAAAAAAAAAAAAAAAAAAAAAAAAAAAAAAAAAAAAAAAAAAAAAAAAAAAAAAAAAAAAAAAAAAAAAAAAAAAAAAAAAAAAAAAAAAAAAAAAAAAAAAAAAAAAAAAAAAAAAAAAAAAAAAAAAAAAAAAAAAAAAAAAAAAAAAAAAAAAAAAAAAAAAAAAAAAAAAAAAAAAAAAAAAAAAAAAAAAAAAAAAAAAAAAAAAAAAAAAAAAAAAAAAAAAAAAAAAAAAAAAAAAAAAAAAAAAAAAAAAAAAAAAAAAAAAAAAAAAAAAAAAAAAAAAAAAAAAAAAAAAAAAAAAAAAAAAAAAAAAAAAAAAAAAAAAAAAAAAAAAAAAAAAAAAAAAAAAAAAAAAAAAAAAAAAAAAAAAAAAAAAAAAAAAAAAAAAAAAAAAAAAAAAAAAAAAAAAAAAAAAAAAAAAAAAAAAAAAAAAAAAAAAAAAAAAAAAAAAAAAAAAAAAAAAAAAAAAAAAAAAAAAAAAAAAAAAAAAAAAAAAAAAAAAAAAAAAAAAAAAAAAAAAAAAAAAAAAAAAAAAAAAAAAAAAAAAAAAAAAAAAAAAAAAAAAAAAAAAAAAAAAAAAAAAAAAAAAAAAAAAAAAAAAAAAAAAAAAAAAAAAAAAAAAAAAAAAAAAAAAAAAAAAAAAAAAAAAAAAAAAAAAAAAAAAAAAAAAAAAAAAAAAAAAAAAAAAAAAAAAAAAAAAAAAAAAAAAAAAAAAAAAAAAAAAAAAAAAAAAAAAAAAAAAAAAAAAAAAAAAAAAAAAAAAAAAAAAAAAAAAAAAAAAAAAAAAAAAAAAAAAAAAAAAAAAAAAAAAAAAAAAAAAAAAAAAAAAAAAAAAAAAAAAAAAAAAAAAAAAAAAAAAAAAAAAAAAAAAAAAAAAAAAAAAAAAAAAAAAAAAAAAAAAAAAAAAAAAAAAAAAAAAAAAAAAAAAAAAAAAAAAAAAAAAAAAAAAAAAAAAAAAAAAAAAAAAAAAAAAAAAAAAAAAAAAAAAAAAAAAAAAAAAAAAAAAAAAAAAAAAAAAAAAAAAAAAAAAAAAAAAAAAAAAAAAAAAAAAAAAAAAAAAAAAAAAAAAAAAAAAAAAAAAAAAAAAAAAAAAAAAAAAAAAAAAAAAAAAAAAAAAAAAAAAAAAAAAAAAAAAAAAAAAAAAAAAAAAAAAAAAAAAAAAAAAAAAAAAAAAAAAAAAAAAAAAAAAAAAAAAAAAAAAAAAAAAAAAAAAAAAAAAAAAAAAAAAAAAAAAAAAAAAAAAAAAAAAAAAAAAAAAAAAAAAAAAAAAAAAAAAAAAAAAAAAAAAAAAAAAAAAAAAAAAAAAAAAAAAAAAAAAAAAAAAAAAAAAAAAAAAAAAAAAAAAAAAAAAAAAAAAAAAAAAAAAAAAAAAAAAAAAAAAAAAAAAAAAAAAAAAAAAAAAAAAAAAAAAAAAAAAAAAAAAAAAAAAAAAAAAAAAAAAAAAAAAAAAAAAAAAAAAAAAAAAAAAAAAAAAAAAAAAAAAAAAAAAAAAAAAAAAAAAAAAAAAAAAAAAAAAAAAAAAAAAAAAAAAAAAAAAAAAAAAAAAAAAAAAAAAAAAAAAAAAAAAAAAAAAAAAAAAAAAAAAAAAAAAAAAAAAAAAAAAAAAAAAAAAAAAAAAAAAAAAAAAAAAAAAAAAAAAAAAAAAAAAAAAAAAAAAAAAAAAAAAAAAAAAAAAAAAAAAAAAAAAAAAAAAAAAAAAAAAAAAAAAAAAAAAAAAAAAAAAAAAAAAAAAAAAAAAAAAAAAAAAAAAAAAAAAAAAAAAAAAAAAAAAAAAAAAAAAAAAAAAAAAAAAAAAAAAAAAAAAAAAAAAAAAAAAAAAAAAAAAAAAAAAAAAAAAAAAAAAAAAAAAAAAAAAAAAAAAAAAAAAAAAAAAAAAAAAAAAAAAAAAAAAAAAAAAAAAAAAAAAAAAAAAAAAAAAAAAAAAAAAAAAAAAAAAAAAAAAAAAAAAAAAAAAAAAAAAAAAAAAAAAAAAAAAAAAAAAAAAAAAAAAAAAAAAAAAAAAAAAAAAAAAAAAAAAAAAAAAAAAAAAAAAAAAAAAAAAAAAAAAAAAAAAAAAAAAAAAAAAAAAAAAAAAAAAAAAAAAAAAAAAAAAAAAAAAAAAAAAAAAAAAAAAAAAAAAAAAAAAAAAAAAAAAAAAAAAAAAAAAAAAAAAAAAAAAAAAAAAAAAAAAAAAAAAAAAAAAAAAAAAAAAAAAAAAAAAAAAAAAAAAAAAAAAAAAAAAAAAAAAAAAAAAAAAAAAAAAAAAAAAAAAAAAAAAAAAAAAAAAAAAAAAAAAAAAAAAAAAAAAAAAAAAAAAAAAAAAAAAAAAAAAAAAAAAAAAAAAAAAAAAAAAAAAAAAAAAAAAAAAAAAAAAAAAAAAAAAAAAAAAAAAAAAAAAAAAAAAAAAAAAAAAAAAAAAAAAAAAAAAAAAAAAAAAAAAAAAAAAAAAAAAAAAAAAAAAAAAAAAAAAAAAAAAAAAAAAAAAAAAAAAAAAAAAAAAAAAAAAAAAAAAAAAAAAAAAAAAAAAAAAAAAAAAAAAAAAAAAAAAAAAAAAAAAAAAAAAAAAAAAAAAAAAAAAAAAAAAAAAAAAAAAAAAAAAAAAAAAAAAAAAAAAAAAAAAAAAAAAAAAAAAAAAAAAAAAAAAAAAAAAAAAAAAAAAAAAAAAAAAAAAAAAAAAAAAAPZYQK0KfTKmLS7HJv9zB/NbpMC/Mk3RRODGxSvIQZg3vc+BnuuWoqtMB/Aj9F/19vNxjHR+jG1s+hhYIfhWzbU7j78=</c2pa:manifest></metadata><defs><style>.cls-1{fill:#0012b5;}.cls-1,.cls-2,.cls-3,.cls-4,.cls-5{stroke-width:0px;}.cls-2{fill:aqua;}.cls-3{fill:#0086ff;}.cls-4{fill:#00b5b5;}.cls-5{fill:#0074b5;}</style></defs><path class="cls-1" d="M45,43.5c-5.46,0-10.58,1.47-15,4.04v-5.54h-15v31.5c0,16.54,13.46,30,30,30v-15c-8.27,0-15-6.73-15-15s6.73-15,15-15,15,6.73,15,15c0-7.59,2.84-14.52,7.5-19.81-5.5-6.24-13.55-10.19-22.5-10.19Z"/><path class="cls-1" d="M90,103.5v-15c-8.27,0-15-6.73-15-15h-15c0,16.54,13.46,30,30,30Z"/><path class="cls-5" d="M90,43.5c-8.95,0-17,3.95-22.5,10.19,4.66,5.29,7.5,12.22,7.5,19.81,0-8.27,6.73-15,15-15s15,6.73,15,15c0-7.59,2.84-14.52,7.5-19.81-5.5-6.24-13.55-10.19-22.5-10.19Z"/><path class="cls-3" d="M60,73.5h15c0-7.59-2.84-14.52-7.5-19.81-4.66,5.29-7.5,12.22-7.5,19.81Z"/><path class="cls-5" d="M135,103.5v-15c-8.27,0-15-6.73-15-15h-15c0,16.54,13.46,30,30,30Z"/><path class="cls-4" d="M150,15v32.54c-4.42-2.56-9.54-4.04-15-4.04-8.95,0-17,3.95-22.5,10.19,4.66,5.29,7.5,12.22,7.5,19.81,0-8.52,7.14-15.41,15.76-14.98,8.06.4,14.24,7.35,14.24,15.42v16.07c0,8.28,6.72,15,15,15h0V15h-15Z"/><path class="cls-2" d="M105,73.5h15c0-7.59-2.84-14.52-7.5-19.81-4.66,5.29-7.5,12.22-7.5,19.81Z"/><path id="projet" class="cls-3" d="M184.2,95.68c-.62,0-1.42-.07-2.04-.19v4.85h-1.39v-17.59h1.06l.31,1.37h.1c.65-.89,1.78-1.61,3.43-1.61,2.98,0,4.8,1.94,4.8,6.19,0,4.46-2.38,6.98-6.26,6.98ZM184.2,94.38c3.26,0,4.82-1.92,4.82-5.5,0-3.94-1.78-5.11-3.6-5.11s-2.81,1.15-3.26,2.04v8.3c.55.14,1.46.26,2.04.26ZM199.99,84.18c-.48-.14-.96-.22-1.44-.22-1.32,0-2.64.53-3.22,1.85v9.87h-1.39v-12.94h1.03l.31,1.32h.1c.6-.84,1.8-1.51,3.24-1.51.65,0,1.08.07,1.37.14v1.49ZM201.53,89.24c0-4.01,1.46-6.74,5.28-6.74s5.14,2.66,5.14,6.6-1.46,6.77-5.28,6.77-5.14-2.69-5.14-6.62ZM206.81,94.57c2.69,0,3.7-1.75,3.7-5.33s-1.15-5.45-3.84-5.45-3.7,1.73-3.7,5.3,1.15,5.47,3.84,5.47ZM212.74,99.78c1.39-.43,2.83-1.3,2.83-4.68v-12.36h1.39v12.41c0,3.77-1.8,5.23-3.72,5.86l-.5-1.22ZM216.15,77.7c.67,0,1.18.5,1.18,1.18s-.5,1.15-1.18,1.15-1.15-.5-1.15-1.15.5-1.18,1.15-1.18ZM230.02,94.74c-.82.58-2.21,1.08-3.89,1.08-3.58,0-5.54-1.78-5.54-6.67s2.69-6.6,5.33-6.6c3,0,4.56,1.97,4.56,5.02,0,.62-.05,1.44-.12,2.21h-8.35c.19,3.5,1.63,4.75,4.32,4.75,1.27,0,2.47-.48,3.05-.94l.65,1.15ZM222,88.48h7.03c.02-.34.02-.67.02-.86,0-2.4-1.03-3.77-3.31-3.77-1.73,0-3.55,1.06-3.74,4.63ZM234.55,92.44v-8.5h-1.99v-.91l1.99-.29.38-3.43h1.01v3.43h3.65v1.2h-3.65v8.33c0,1.61.79,2.26,2.02,2.26s1.75-.26,2.04-.43l.41,1.18c-.5.26-1.32.53-2.69.53-2.11,0-3.17-1.13-3.17-3.36Z"/><path id="durabilis" class="cls-1" d="M189.07,47.4h1.39v18.22h-1.01l-.36-1.39h-.1c-.53.89-1.78,1.66-3.43,1.66-2.98,0-4.8-1.94-4.8-6.19,0-4.46,2.38-6.98,6.26-6.98.62,0,1.42.07,2.04.19v-5.5ZM189.07,62.26v-7.99c-.55-.14-1.46-.26-2.04-.26-3.26,0-4.82,1.92-4.82,5.5,0,3.94,1.78,5.11,3.6,5.11,1.7,0,2.74-.98,3.26-2.35ZM194.57,52.68h1.39v8.5c0,2.3.98,3.41,3.12,3.41,1.92,0,3.53-1.03,3.53-3.55v-8.35h1.39v12.94h-1.03l-.31-1.39h-.1c-.26.38-1.46,1.66-3.77,1.66-2.62,0-4.15-1.39-4.22-4.3v-8.91ZM214.23,54.12c-.48-.14-.96-.22-1.44-.22-1.32,0-2.64.53-3.22,1.85v9.87h-1.39v-12.94h1.03l.31,1.32h.1c.6-.84,1.8-1.51,3.24-1.51.65,0,1.08.07,1.37.14v1.49ZM224.11,56.33v6.05c0,1.27.38,2.18,1.37,2.18h.31v1.08c-.07.02-.24.05-.38.05-1.3,0-2.06-.72-2.35-1.61h-.1c-.65.72-1.71,1.8-3.98,1.8s-3.72-1.68-3.72-3.38c0-2.83,2.86-4.25,7.56-4.2v-1.51c0-2.3-1.08-2.98-2.98-2.98s-2.74,1.01-3.14,1.61l-1.03-.86c.43-.6,1.63-2.04,4.25-2.04s4.2,1.22,4.2,3.82ZM222.82,59.5c-3.34-.1-6.14.72-6.14,2.88,0,1.27.91,2.3,2.57,2.3s2.95-1.01,3.58-1.99v-3.19ZM229.03,47.4h1.39v6.26h.1c.38-.34,1.54-1.08,3.31-1.08,2.64,0,4.87,1.8,4.87,6.12s-2.02,7.15-6.29,7.15c-1.46,0-2.69-.29-3.38-.65v-17.81ZM237.27,58.97c0-4.01-1.94-5.11-3.84-5.11-1.1,0-2.33.53-3,1.44v8.86c.55.24,1.39.41,2.3.41,2.69,0,4.54-1.9,4.54-5.59ZM243.53,47.64c.67,0,1.18.5,1.18,1.18s-.5,1.15-1.18,1.15-1.15-.5-1.15-1.15.5-1.18,1.15-1.18ZM242.95,52.68h1.39v12.94h-1.39v-12.94ZM250.63,47.4v15.43c0,1.2.36,1.73,1.42,1.73.55,0,.98-.17,1.25-.31v1.25c-.48.22-1.18.29-1.61.29-1.7,0-2.45-1.01-2.45-2.57v-15.82h1.39ZM257.16,47.64c.67,0,1.18.5,1.18,1.18s-.5,1.15-1.18,1.15-1.15-.5-1.15-1.15.5-1.18,1.15-1.18ZM256.58,52.68h1.39v12.94h-1.39v-12.94ZM262.27,55.97c0-1.8,1.51-3.48,4.32-3.48,1.32,0,2.74.46,3.53,1.25l-.91,1.06c-.65-.67-1.73-1.01-2.66-1.01-2.04,0-2.88,1.01-2.88,2.16,0,3.19,6.65,1.87,6.65,6.29,0,1.8-1.54,3.6-4.46,3.6-1.97,0-3.53-.72-4.39-1.56l.91-1.1c.84.84,2.06,1.37,3.55,1.37,1.99,0,3-1.06,3-2.3,0-3.22-6.65-1.87-6.65-6.26Z"/><path id="mare" class="cls-1" d="M192.92,22.5c2.54,0,3.98,1.49,3.98,4.27v8.9h-1.39v-8.59c0-2.14-.98-3.29-2.78-3.29s-2.88,1.27-3.19,2.33v9.55h-1.39v-8.47c0-2.18-.98-3.41-2.78-3.41s-2.93,1.32-3.19,2.52v9.36h-1.39v-12.94h1.03l.31,1.44h.1c.24-.41,1.13-1.68,3.34-1.68,1.92,0,3,.89,3.48,2.14h.1c.46-1.1,1.71-2.14,3.79-2.14ZM209.14,26.39v6.05c0,1.27.38,2.18,1.37,2.18h.31v1.08c-.07.02-.24.05-.38.05-1.3,0-2.06-.72-2.35-1.61h-.1c-.65.72-1.71,1.8-3.98,1.8s-3.72-1.68-3.72-3.38c0-2.83,2.86-4.25,7.56-4.2v-1.51c0-2.3-1.08-2.98-2.98-2.98s-2.74,1.01-3.14,1.61l-1.03-.86c.43-.6,1.63-2.04,4.25-2.04s4.2,1.22,4.2,3.82ZM207.84,29.56c-3.34-.1-6.14.72-6.14,2.88,0,1.27.91,2.3,2.57,2.3s2.95-1.01,3.58-1.99v-3.19ZM220.11,24.18c-.48-.14-.96-.22-1.44-.22-1.32,0-2.64.53-3.22,1.85v9.87h-1.39v-12.94h1.03l.31,1.32h.1c.6-.84,1.8-1.51,3.24-1.51.65,0,1.08.07,1.37.14v1.49ZM231.07,34.74c-.82.58-2.21,1.08-3.89,1.08-3.58,0-5.54-1.78-5.54-6.67s2.69-6.6,5.33-6.6c3,0,4.56,1.97,4.56,5.02,0,.62-.05,1.44-.12,2.21h-8.35c.19,3.5,1.63,4.75,4.32,4.75,1.27,0,2.47-.48,3.05-.94l.65,1.15ZM223.06,28.48h7.03c.02-.34.02-.67.02-.86,0-2.4-1.03-3.77-3.31-3.77-1.73,0-3.55,1.06-3.74,4.63Z"/></svg>